Patient4_TMGait_0pt7_02_left_50_GRF.mot
version=1
nRows=65
nColumns=19
inDegrees=no
endheader
time	F1x	F1y	F1z	M1x	M1y	M1z	F2x	F2y	F2z	M2x	M2y	M2z	EC1x	EC1y	EC1z	EC2x	EC2y	EC2z
57.27	-2.5059	10.813	-4.4313	-1.3846	1.0961	17.501	-42.5841	725.4729	-83.024	284.4281	96.3112	771.8571	-0.0592	0.0182	-0.0073	-0.0462	0.0165	0.9585
57.2814	-1.8333	8.297	-2.8699	-1.2917	0.5078	12.7389	-42.307	726.0148	-74.5936	282.9712	89.8065	768.8093	-0.0592	0.0182	-0.0073	-0.0462	0.0165	0.9585
57.2927	-1.2894	6.2194	-1.5429	-1.2364	0.021986	8.775	-40.9032	726.4167	-66.9806	281.8142	83.2206	764.5897	-0.0592	0.0182	-0.0073	-0.0462	0.0165	0.9585
57.3041	-0.87903	4.6852	-0.53395	-1.2152	-0.33251	5.8038	-38.2485	726.7812	-60.5797	281.0745	76.7981	759.4193	-0.0592	0.0182	-0.0073	-0.0462	0.0165	0.9585
57.3154	-0.62266	3.6825	0.16159	-1.223	-0.57281	3.824	-34.417	727.3943	-55.4824	280.832	70.687	753.7921	-0.0592	0.0182	-0.0073	-0.0462	0.0165	0.9585
57.3268	-0.48085	3.1269	0.58951	-1.2507	-0.71747	2.683	-29.6575	728.563	-51.6237	281.1182	65.0158	748.2601	-0.0592	0.0182	-0.0073	-0.0462	0.0165	0.9585
57.3381	-0.45193	2.8891	0.81149	-1.2808	-0.79814	2.1751	-24.3351	730.4653	-48.9251	281.8913	59.9605	743.2487	-0.0592	0.0182	-0.0073	-0.0462	0.0165	0.9585
57.3495	-0.50402	2.8145	0.89357	-1.2894	-0.84528	2.0338	-18.8002	733.0951	-47.2985	283.0356	55.6766	738.9497	-0.0592	0.0182	-0.0073	-0.0462	0.0165	0.9585
57.3609	-0.63214	2.7459	0.88604	-1.2478	-0.88436	2.0179	-13.336	736.1614	-46.6594	284.3481	52.2691	735.2173	-0.0592	0.0182	-0.0073	-0.0462	0.0165	0.9585
57.3722	-0.81064	2.5213	0.84662	-1.1218	-0.94179	1.8777	-8.0646	739.2968	-46.8759	285.6229	49.717	731.7608	-0.0592	0.0182	-0.0073	-0.0462	0.0165	0.9585
57.3836	-1.0403	1.9938	0.7983	-0.87495	-1.0192	1.4085	-3.0276	742.2077	-47.7642	286.7158	47.9006	728.3143	-0.0592	0.0182	-0.0073	-0.0462	0.0165	0.9585
57.3949	-1.2764	1.0351	0.76933	-0.4701	-1.1166	0.41966	1.7965	744.7037	-49.1179	287.5531	46.6373	724.6717	-0.0592	0.0182	-0.0073	-0.0462	0.0165	0.9585
57.4063	-1.4943	-0.43653	0.75363	0.11565	-1.2112	-1.1978	6.4385	746.6687	-50.7461	288.1057	45.744	720.6937	-0.0592	0.0182	-0.0073	-0.0462	0.0165	0.9585
57.4176	-1.6051	-2.4397	0.75157	0.88367	-1.2672	-3.4672	10.9007	747.957	-52.4966	288.3485	45.0724	716.2029	-0.0592	0.0182	-0.0073	-0.0462	0.0165	0.9585
57.429	-1.5018	-4.8401	0.73133	1.784	-1.2077	-6.2137	15.1948	748.4301	-54.271	288.2577	44.5196	711.0446	-0.0592	0.0182	-0.0073	-0.0462	0.0165	0.9585
57.4404	-1.0092	-7.3226	0.65934	2.6967	-0.93486	-9.0781	19.318	747.8739	-56.0204	287.7823	44.028	704.987	-0.0592	0.0182	-0.0073	-0.0462	0.0165	0.9585
57.4517	0.075224	-9.2443	0.49124	3.3879	-0.33046	-11.3143	23.275	746.0605	-57.7165	286.86	43.557	697.8081	-0.0592	0.0182	-0.0073	-0.0462	0.0165	0.9585
57.4631	1.9841	-9.622	0.17374	3.4955	0.75136	-11.8021	27.0606	742.7847	-59.3508	285.431	43.0937	689.3284	-0.0592	0.0182	-0.0073	-0.0462	0.0165	0.9585
57.4744	4.9082	-6.9792	-0.35833	2.4864	2.4537	-8.8414	30.6523	737.9229	-60.8776	283.4638	42.6033	679.4557	-0.0592	0.0182	-0.0073	-0.0462	0.0165	0.9585
57.4858	8.9607	0.58191	-1.1589	-0.33139	4.8784	-0.24916	34.0069	731.5251	-62.2477	280.9866	42.0672	668.2816	-0.0592	0.0182	-0.0073	-0.0462	0.0165	0.9585
57.4971	14.0236	15.3345	-2.2606	-5.7817	8.0135	16.6166	37.0613	723.7983	-63.3592	278.0852	41.4308	656.0585	-0.0592	0.0182	-0.0073	-0.0462	0.0165	0.9585
57.5085	19.6555	39.573	-3.6211	-14.6958	11.6432	44.4224	39.7344	714.9811	-64.0837	274.8488	40.6237	643.095	-0.0592	0.0182	-0.0073	-0.0462	0.0165	0.9585
57.5199	24.8562	75.0958	-5.119	-27.7184	15.2493	85.2813	41.9607	705.1121	-64.2688	271.2851	39.5505	629.5271	-0.0592	0.0182	-0.0073	-0.0462	0.0165	0.9585
57.5312	27.9119	122.2694	-6.449	-44.9642	17.8453	139.6618	43.6908	693.8643	-63.7302	267.2564	38.0816	615.1659	-0.0592	0.0182	-0.0073	-0.0462	0.0165	0.9585
57.5426	26.4382	179.0451	-7.0928	-65.6652	17.9788	205.3012	44.9181	680.5074	-62.2853	262.4641	36.0752	599.4396	-0.0592	0.0182	-0.0073	-0.0462	0.0165	0.9585
57.5539	18.9637	241.0786	-6.3338	-88.1934	14.3087	277.2886	45.6355	663.9921	-59.7957	256.4814	33.4282	581.4835	-0.0592	0.0182	-0.0073	-0.0462	0.0165	0.9585
57.5653	6.7982	302.4056	-3.2925	-110.3091	6.3027	348.6904	45.8469	643.1454	-56.1986	248.8305	30.0949	560.3026	-0.0592	0.0182	-0.0073	-0.0462	0.0165	0.9585
57.5766	-6.9286	356.3157	2.6088	-129.5704	-5.4963	411.3692	45.5744	616.9356	-51.5983	239.0854	26.1671	535.0015	-0.0592	0.0182	-0.0073	-0.0462	0.0165	0.9585
57.588	-19.6697	399.0182	10.4695	-144.6518	-19.0895	460.5371	44.8485	584.776	-46.2414	226.9926	21.8446	505.0443	-0.0592	0.0182	-0.0073	-0.0462	0.0165	0.9585
57.5994	-30.1184	430.8637	18.7989	-155.7683	-32.2795	496.3536	43.695	546.8155	-40.4672	212.5774	17.393	470.5359	-0.0592	0.0182	-0.0073	-0.0462	0.0165	0.9585
57.6107	-37.72	454.8792	26.4733	-164.0861	-43.5976	522.2944	42.147	503.7852	-34.7019	196.1008	13.1392	432.0669	-0.0592	0.0182	-0.0073	-0.0462	0.0165	0.9585
57.6221	-42.5404	474.3268	32.5718	-170.8636	-52.0561	542.2282	40.2065	456.8318	-29.2672	177.9984	9.3284	390.6055	-0.0592	0.0182	-0.0073	-0.0462	0.0165	0.9585
57.6334	-44.8522	491.724	36.7017	-177.0466	-57.3323	559.0978	37.8628	407.2572	-24.3579	158.783	6.1198	347.2381	-0.0592	0.0182	-0.0073	-0.0462	0.0165	0.9585
57.6448	-44.9168	508.3994	38.8765	-183.1216	-59.5729	574.4944	34.9895	356.3888	-19.9976	138.9938	3.5656	303.0904	-0.0592	0.0182	-0.0073	-0.0462	0.0165	0.9585
57.6561	-43.1065	525.0502	39.5281	-189.3044	-59.4127	589.2317	31.5024	305.6114	-16.1833	119.1913	1.7037	259.3191	-0.0592	0.0182	-0.0073	-0.0462	0.0165	0.9585
57.6675	-39.8356	542.1522	39.2981	-195.7036	-57.7292	603.9443	27.3187	256.3381	-12.9122	99.948	0.55799	217.1123	-0.0592	0.0182	-0.0073	-0.0462	0.0165	0.9585
57.6789	-35.5378	560.0681	38.822	-202.3864	-55.3983	619.1542	22.5659	209.9877	-10.2098	81.8322	0.10684	177.6163	-0.0592	0.0182	-0.0073	-0.0462	0.0165	0.9585
57.6902	-30.7749	579.152	38.7375	-209.41	-53.3094	635.3254	17.4972	167.8372	-8.0893	65.3476	0.2594	141.8575	-0.0592	0.0182	-0.0073	-0.0462	0.0165	0.9585
57.7016	-26.0573	599.4548	39.4782	-216.7501	-52.1164	652.6017	12.5318	130.74	-6.4896	50.8402	0.80506	110.4716	-0.0592	0.0182	-0.0073	-0.0462	0.0165	0.9585
57.7129	-21.853	620.9952	41.3272	-224.3765	-52.27	671.0576	8.056	99.1237	-5.3184	38.4799	1.5217	83.7797	-0.0592	0.0182	-0.0073	-0.0462	0.0165	0.9585
57.7243	-18.4286	643.751	44.1884	-232.2744	-53.7521	690.7112	4.3572	72.8943	-4.4315	28.2422	2.1815	61.6487	-0.0592	0.0182	-0.0073	-0.0462	0.0165	0.9585
57.7356	-15.8434	667.7077	47.7715	-240.4336	-56.2648	711.6137	1.5389	51.693	-3.7137	19.9831	2.6488	43.7819	-0.0592	0.0182	-0.0073	-0.0462	0.0165	0.9585
57.747	-14.0924	692.489	51.6885	-248.7223	-59.3889	733.3832	-0.4005	34.9502	-3.0678	13.4795	2.8466	29.6823	-0.0592	0.0182	-0.0073	-0.0462	0.0165	0.9585
57.7584	-13.1514	717.2506	55.643	-256.8331	-62.7929	755.1847	-1.5884	22.1086	-2.4475	8.5047	2.7821	18.9029	-0.0592	0.0182	-0.0073	-0.0462	0.0165	0.9585
57.7697	-12.9042	740.8747	59.5201	-264.3548	-66.3053	775.8697	-2.1257	12.6534	-1.8486	4.8515	2.4939	10.9909	-0.0592	0.0182	-0.0073	-0.0462	0.0165	0.9585
57.7811	-13.2237	762.162	63.2479	-270.8624	-69.7897	794.2099	-2.1839	6.1278	-1.2929	2.3347	2.0586	5.5705	-0.0592	0.0182	-0.0073	-0.0462	0.0165	0.9585
57.7924	-13.8311	780.0714	66.8127	-275.9981	-73.1326	809.1104	-1.9169	2.0538	-0.8295	0.76406	1.5777	2.2034	-0.0592	0.0182	-0.0073	-0.0462	0.0165	0.9585
57.8038	-14.4929	793.7829	70.0857	-279.5049	-76.1272	819.6889	-1.5407	-0.10969	-0.48479	-0.074976	1.1477	0.45141	-0.0592	0.0182	-0.0073	-0.0462	0.0165	0.9585
57.8151	-14.9498	802.88	72.9308	-281.2837	-78.562	825.4663	-1.1343	-0.94944	-0.25186	-0.40584	0.79728	-0.19844	-0.0592	0.0182	-0.0073	-0.0462	0.0165	0.9585
57.8265	-14.9846	807.4129	75.1694	-281.408	-80.2017	826.489	-0.77847	-0.93846	-0.10891	-0.41251	0.5371	-0.11924	-0.0592	0.0182	-0.0073	-0.0462	0.0165	0.9585
57.8379	-14.4589	807.7537	76.6936	-280.0694	-80.9067	823.1055	-0.48027	-0.49797	-0.034843	-0.24856	0.35577	0.30556	-0.0592	0.0182	-0.0073	-0.0462	0.0165	0.9585
57.8492	-13.3071	804.5006	77.4925	-277.529	-80.6552	815.9212	-0.25909	0.12484	-0.0036367	-0.010128	0.23557	0.88811	-0.0592	0.0182	-0.0073	-0.0462	0.0165	0.9585
57.8606	-11.5158	798.2844	77.5902	-274.0536	-79.4823	805.5798	-0.08976	0.71751	-0.010845	0.22815	0.16789	1.4328	-0.0592	0.0182	-0.0073	-0.0462	0.0165	0.9585
57.8719	-9.1783	789.8067	77.1021	-269.9132	-77.542	792.807	0.018953	1.2203	-0.029567	0.43852	0.13459	1.8914	-0.0592	0.0182	-0.0073	-0.0462	0.0165	0.9585
57.8833	-6.3789	779.7524	76.1079	-265.364	-74.9548	778.331	0.097184	1.5934	-0.061316	0.60469	0.13239	2.2143	-0.0592	0.0182	-0.0073	-0.0462	0.0165	0.9585
57.8946	-3.2405	768.827	74.7577	-260.6511	-71.9191	762.9015	0.13367	1.8595	-0.089143	0.72979	0.14678	2.4346	-0.0592	0.0182	-0.0073	-0.0462	0.0165	0.9585
57.906	0.11214	757.6211	73.1807	-255.9746	-68.6149	747.1368	0.15685	2.0573	-0.11425	0.82297	0.17059	2.5886	-0.0592	0.0182	-0.0073	-0.0462	0.0165	0.9585
57.9174	3.6013	746.5962	71.5283	-251.4808	-65.2269	731.5369	0.14376	2.2126	-0.1317	0.8924	0.19935	2.7147	-0.0592	0.0182	-0.0073	-0.0462	0.0165	0.9585
57.9287	7.1166	736.0567	69.9298	-247.2614	-61.9163	716.4279	0.11714	2.3447	-0.14485	0.94405	0.22931	2.833	-0.0592	0.0182	-0.0073	-0.0462	0.0165	0.9585
57.9401	10.6059	726.2031	68.4538	-243.3748	-58.7694	702.019	0.06002	2.4512	-0.1572	0.97804	0.26706	2.9354	-0.0592	0.0182	-0.0073	-0.0462	0.0165	0.9585
57.9514	14.0308	717.2361	67.1706	-239.8741	-55.8651	688.5006	-0.015998	2.4991	-0.18149	0.98454	0.32379	2.9717	-0.0592	0.0182	-0.0073	-0.0462	0.0165	0.9585
57.9628	17.4094	709.3373	66.0966	-236.8098	-53.2094	675.991	-0.1117	2.4518	-0.21712	0.94968	0.39736	2.8983	-0.0592	0.0182	-0.0073	-0.0462	0.0165	0.9585
57.9741	20.8005	702.7804	65.2865	-234.2605	-50.8242	664.7104	-0.22431	2.2302	-0.27991	0.84628	0.49999	2.6123	-0.0592	0.0182	-0.0073	-0.0462	0.0165	0.9585
57.9855	24.2885	697.8592	64.7778	-232.3193	-48.707	654.8817	-0.35308	1.7558	-0.37004	0.64393	0.63234	2.0279	-0.0592	0.0182	-0.0073	-0.0462	0.0165	0.9585
57.9969	27.9324	694.9318	64.6268	-231.0978	-46.8798	646.8091	-0.47451	0.91637	-0.48736	0.30112	0.79089	1.0241	-0.0592	0.0182	-0.0073	-0.0462	0.0165	0.9585
